<svg xmlns="http://www.w3.org/2000/svg" viewBox="0 0 651.55 138.09"><defs><style>.cls-1{fill:#02a691;}.cls-2{fill:#fff;}</style></defs><g id="Layer_2" data-name="Layer 2"><g id="Layer_1-2" data-name="Layer 1"><path class="cls-1" d="M438.88,55.84a12.92,12.92,0,0,0,.67-4.8V32.86c0-1,0-3,4.6-3,.55,0,1.35,0,2.38.1s1.85.11,2.3.11h1.35V16.76H438.61c-8.92,0-13.64,4.88-13.64,14.1V51.65l-10.12,9.86v3.05L425,74.47v24c0,9.23,4.72,14.1,13.64,14.1h11.57V99.25h-1.35c-.44,0-1.16,0-2.23.08s-1.77.08-2.29.08c-4.76,0-4.76-2.18-4.76-3.11V75a12.36,12.36,0,0,0-.62-4.54,11,11,0,0,0-3.1-3.74l-4.35-3.68,4.36-3.6A10.83,10.83,0,0,0,438.88,55.84Z"/><path class="cls-1" d="M545.11,51.65V30.86c0-9.22-4.74-14.1-13.69-14.1H519.9V30.11h1.35c.4,0,1.13,0,2.22-.08s1.85-.08,2.4-.08c4.76,0,4.76,2,4.76,2.91V51a13.79,13.79,0,0,0,.55,4.65,9.78,9.78,0,0,0,3.08,3.8l4.34,3.58-4.35,3.67a9.83,9.83,0,0,0-3,3.61,13.38,13.38,0,0,0-.61,4.68V96.3c0,.93,0,3.11-4.91,3.11-.52,0-1.29,0-2.3-.08s-1.77-.08-2.17-.08H519.9V112.6h11.52c9,0,13.69-4.87,13.69-14.1v-24l10.11-9.91V61.51Z"/><rect class="cls-2" x="486.31" y="48.62" width="21.06" height="21.06" rx="0.54"/><rect class="cls-2" x="462.69" y="23.64" width="17.35" height="17.35" rx="0.54"/><rect class="cls-2" x="488.31" width="13.74" height="13.74" rx="0.49"/><line class="cls-2" x1="490.26" y1="53.11" x2="475.48" y2="35.71"/><line class="cls-2" x1="476.23" y1="27.68" x2="492.28" y2="9.32"/><path class="cls-2" d="M13.93,30.85A46,46,0,0,0,0,64.48,46,46,0,0,0,13.93,98.11,46,46,0,0,0,47.56,112H88.75V93.26H47.56a27.5,27.5,0,0,1-20.35-8.43,27.5,27.5,0,0,1-8.43-20.35,27.48,27.48,0,0,1,8.43-20.34,27.46,27.46,0,0,1,20.35-8.43H88.75V16.93H47.56A46,46,0,0,0,13.93,30.85Z"/><polygon class="cls-2" points="149.26 50.01 121.22 16.93 96.6 16.93 139.88 67.89 139.88 112.04 158.65 112.04 158.65 67.89 201.93 16.93 177.31 16.93 149.26 50.01"/><path class="cls-2" d="M290.84,25.26a27.57,27.57,0,0,0-20.15-8.33H210.41V86.59h18.78V35.71h41.5a9.68,9.68,0,0,1,9.7,9.69,9.68,9.68,0,0,1-9.7,9.69H235.86V73.87h34.83a9.7,9.7,0,1,1,0,19.39H210.41V112h60.28a28.42,28.42,0,0,0,28.47-28.48,27.48,27.48,0,0,0-7.31-19.08,27.48,27.48,0,0,0,7.31-19.08A27.56,27.56,0,0,0,290.84,25.26Z"/><path class="cls-2" d="M375.9,73.87A27.53,27.53,0,0,0,396,65.54a27.54,27.54,0,0,0,8.33-20.14A27.53,27.53,0,0,0,396,25.26a27.53,27.53,0,0,0-20.14-8.33H315.62V112H334.4V61.74L384.7,112h26.63L373.16,73.87ZM334.4,35.71h41.5a9.66,9.66,0,0,1,9.69,9.69,9.66,9.66,0,0,1-9.69,9.69H334.4Z"/><path class="cls-2" d="M591.27,35.71h60.28V16.93H591.27a27.53,27.53,0,0,0-20.14,8.33A27.53,27.53,0,0,0,562.8,45.4a27.54,27.54,0,0,0,8.33,20.14,27.53,27.53,0,0,0,20.14,8.33h31.81a9.7,9.7,0,1,1,0,19.39H562.8V112h60.28a28.44,28.44,0,0,0,28.47-28.48,28.44,28.44,0,0,0-28.47-28.47H591.27a9.66,9.66,0,0,1-9.69-9.69,9.66,9.66,0,0,1,9.69-9.69Z"/><path class="cls-1" d="M522,130.78l1.36,6.54a.78.78,0,0,1-.77.77H448.84a.78.78,0,0,1-.77-.77l1.36-6.54a.76.76,0,0,1,.77-.77H497a3,3,0,0,0,1.83-.62,4.81,4.81,0,0,0,1.51-2.18,5.86,5.86,0,0,0,.08-3.08,3.23,3.23,0,0,0-.24-.58,3.6,3.6,0,0,0-2.8-1.37H461.15a.76.76,0,0,1-.74-.94l1-6.55a.77.77,0,0,1,.75-.6h46.67a.77.77,0,0,1,.75.6s1.94,8.6,3,12.62c.32,1.21.74,2.67,2,2.8l6.65-.1A.76.76,0,0,1,522,130.78Z"/></g></g></svg>